<?xml version="1.0" standalone="no"?>
<!DOCTYPE svg PUBLIC "-//W3C//DTD SVG 20010904//EN"
 "http://www.w3.org/TR/2001/REC-SVG-20010904/DTD/svg10.dtd">
<svg version="1.0" xmlns="http://www.w3.org/2000/svg"
 width="2944.000000pt" height="719.000000pt" viewBox="0 0 2944.000000 719.000000"
 preserveAspectRatio="xMidYMid meet">

<g transform="translate(0.000000,719.000000) scale(0.100000,-0.100000)"
fill="#000000" stroke="none">
<path d="M3742 6328 l3 -163 795 0 795 0 3 163 2 162 -800 0 -800 0 2 -162z"/>
<path d="M10690 3609 c-531 -1320 -966 -2405 -968 -2410 -6 -15 295 -12 301 4
3 6 428 1067 945 2357 517 1290 950 2369 961 2398 l21 52 -148 0 -147 0 -965
-2401z"/>
<path d="M4355 5886 c-294 -49 -522 -169 -720 -377 -243 -254 -361 -601 -325
-954 25 -256 114 -465 261 -620 l38 -40 -377 -933 c-207 -512 -379 -929 -383
-925 -6 6 -1326 3244 -1556 3816 l-15 37 -172 -2 c-107 -2 -170 -7 -169 -13 1
-5 420 -1045 931 -2310 l929 -2300 50 -3 50 -3 70 173 c38 95 258 641 488
1213 230 572 419 1041 420 1043 2 2 67 -28 146 -67 79 -38 232 -105 339 -149
278 -113 403 -171 513 -235 348 -206 492 -460 474 -841 -19 -419 -302 -756
-708 -841 -91 -19 -304 -19 -405 0 -226 43 -466 166 -777 399 -49 36 -91 66
-93 66 -2 0 -4 -94 -4 -208 l0 -208 98 -64 c218 -144 492 -261 732 -311 126
-26 370 -32 490 -10 185 33 396 124 540 232 101 76 213 195 282 299 72 109 98
163 141 286 51 148 70 264 70 434 -1 365 -105 635 -330 851 -167 160 -358 267
-793 442 -129 52 -274 113 -323 135 -94 44 -247 132 -247 142 0 4 136 346 303
761 l303 754 47 3 c59 4 192 -21 294 -54 99 -32 327 -142 461 -222 57 -34 106
-62 108 -62 2 0 3 89 2 198 l-3 197 -131 66 c-193 97 -371 158 -576 195 -117
21 -373 27 -473 10z m-114 -423 c-120 -304 -464 -1150 -470 -1156 -13 -13 -69
125 -87 214 -20 101 -15 311 11 404 68 244 233 438 467 550 97 47 102 46 79
-12z"/>
<path d="M14707 5848 c-13 -29 -119 -281 -237 -560 -118 -280 -217 -508 -220
-508 -7 1 -50 64 -162 240 -57 88 -125 181 -159 216 l-60 60 50 32 c95 58 146
187 122 303 -16 75 -62 152 -113 187 -82 57 -125 65 -335 70 l-193 4 0 -566 0
-566 80 0 80 0 0 245 0 245 53 0 c124 -1 174 -52 412 -427 l40 -63 175 0 175
0 70 165 69 165 236 0 237 0 73 -165 74 -165 83 0 c46 0 83 1 83 3 0 1 -112
256 -249 567 l-248 565 -57 3 -56 3 -23 -53z m-982 -108 c73 -12 103 -32 133
-91 41 -78 13 -180 -63 -225 -22 -14 -57 -19 -132 -22 l-103 -4 0 176 0 176
53 0 c28 0 79 -5 112 -10z m1176 -367 l58 -133 -171 0 c-132 0 -169 3 -165 13
3 6 38 91 77 187 40 96 75 179 78 185 6 10 21 -21 123 -252z"/>
<path d="M15786 5885 c-202 -51 -366 -215 -421 -420 -21 -80 -21 -214 0 -295
37 -145 145 -284 272 -353 173 -93 469 -92 686 2 l47 20 -2 238 -3 238 -187 3
-188 2 0 -75 0 -75 105 0 106 0 -3 -117 -3 -117 -60 -18 c-132 -40 -291 -31
-396 23 -91 46 -174 147 -203 248 -20 69 -21 202 -1 269 37 123 157 241 283
279 122 36 308 10 451 -62 l72 -36 -3 88 -3 88 -115 39 c-107 37 -124 40 -245
43 -90 2 -148 -2 -189 -12z"/>
<path d="M24782 5881 c-216 -74 -269 -350 -97 -498 22 -19 91 -66 154 -105
135 -84 176 -118 202 -169 25 -50 24 -98 -4 -139 -76 -114 -270 -96 -399 36
l-48 48 0 -105 0 -104 43 -27 c151 -95 362 -94 479 2 21 17 51 59 69 95 30 61
31 69 27 152 -5 105 -25 149 -97 220 -27 26 -93 75 -148 107 -156 94 -193 125
-215 174 -25 55 -18 99 20 135 38 36 73 47 150 47 75 0 145 -27 213 -81 l39
-31 0 95 0 96 -52 24 c-29 14 -71 30 -93 36 -62 17 -182 13 -243 -8z"/>
<path d="M12560 5325 l0 -565 80 0 80 0 0 245 0 245 123 0 c139 0 214 15 281
54 162 95 189 352 52 489 -81 81 -150 97 -416 97 l-200 0 0 -565z m468 387
c45 -33 66 -77 66 -142 0 -65 -21 -109 -66 -142 -30 -21 -45 -23 -170 -26
l-138 -4 0 172 0 172 138 -4 c125 -3 140 -5 170 -26z"/>
<path d="M16567 5883 c-11 -10 -8 -690 3 -765 14 -97 45 -170 95 -226 83 -92
221 -145 380 -145 247 0 415 117 466 323 10 41 13 150 14 435 l0 380 -82 3
-82 3 -3 -403 c-3 -394 -3 -404 -25 -444 -61 -115 -216 -175 -368 -144 -111
22 -202 97 -224 185 -7 28 -11 180 -11 424 l0 381 -78 0 c-43 0 -82 -3 -85 -7z"/>
<path d="M17737 5883 c-4 -3 -7 -258 -7 -565 l0 -558 330 0 331 0 -3 73 -3 72
-242 3 -243 2 0 170 0 170 225 0 225 0 0 75 0 75 -225 0 -225 0 0 170 0 170
235 0 235 0 0 75 0 75 -313 0 c-173 0 -317 -3 -320 -7z"/>
<path d="M19002 5483 c4 -397 5 -410 27 -471 60 -162 226 -262 441 -265 256
-3 435 120 479 331 7 34 11 192 11 432 l0 380 -80 0 -80 0 0 -357 c0 -217 -4
-381 -11 -420 -15 -88 -54 -138 -143 -183 -65 -33 -74 -35 -165 -34 -76 0
-106 4 -143 21 -75 34 -115 71 -145 131 l-28 57 -4 393 -3 392 -80 0 -79 0 3
-407z"/>
<path d="M20180 5325 l0 -565 75 0 75 0 2 429 3 428 368 -428 368 -429 70 0
69 0 0 565 0 565 -75 0 -75 0 -2 -435 -3 -435 -374 435 -374 435 -64 0 -63 0
0 -565z"/>
<path d="M21440 5325 l0 -565 80 0 80 0 0 565 0 565 -80 0 -80 0 0 -565z"/>
<path d="M21720 5883 c0 -5 107 -260 238 -568 199 -468 241 -560 257 -560 17
0 57 90 252 555 127 305 232 561 232 568 1 8 -21 12 -77 12 l-78 0 -164 -390
c-90 -215 -167 -387 -171 -383 -4 5 -75 169 -158 365 -83 196 -156 368 -163
382 -11 25 -15 26 -90 26 -43 0 -78 -3 -78 -7z"/>
<path d="M22820 5325 l0 -565 325 0 325 0 0 75 0 75 -245 0 -245 0 0 170 0
170 228 2 227 3 3 73 3 72 -231 0 -230 0 0 170 0 170 235 0 235 0 0 75 0 75
-315 0 -315 0 0 -565z"/>
<path d="M23668 5884 c-5 -4 -8 -259 -8 -566 l0 -558 85 0 85 0 0 246 0 246
64 -4 c113 -7 154 -47 335 -328 l104 -160 93 0 c52 0 94 2 94 5 0 3 -31 52
-69 108 -38 56 -103 154 -144 218 -42 64 -99 137 -127 162 -47 42 -49 46 -29
52 34 11 108 84 131 130 30 57 36 176 13 245 -24 74 -100 150 -180 181 -53 20
-81 23 -250 27 -104 2 -193 0 -197 -4z m391 -163 c54 -28 83 -78 83 -144 1
-121 -70 -177 -227 -177 l-85 0 0 177 0 176 95 -6 c65 -4 107 -13 134 -26z"/>
<path d="M25380 5325 l0 -565 80 0 80 0 0 565 0 565 -80 0 -80 0 0 -565z"/>
<path d="M25680 5815 l0 -75 190 0 190 0 0 -490 0 -490 85 0 85 0 0 490 0 490
195 0 195 0 0 75 0 75 -470 0 -470 0 0 -75z"/>
<path d="M26642 5880 c2 -5 92 -124 201 -264 l197 -254 0 -301 0 -301 85 0 85
0 0 298 0 297 206 265 206 265 -92 3 c-71 2 -96 -1 -109 -12 -9 -8 -77 -94
-151 -190 -74 -96 -139 -174 -145 -172 -5 1 -74 87 -154 189 l-144 187 -94 0
c-58 0 -93 -4 -91 -10z"/>
<path d="M5890 3590 l0 -2290 1670 0 1670 0 0 540 0 540 -845 0 -845 0 0 370
0 370 780 0 780 0 0 525 0 525 -780 0 -780 0 0 330 0 330 825 0 825 0 0 525 0
525 -1650 0 -1650 0 0 -2290z"/>
<path d="M13008 4180 c-282 -51 -468 -257 -485 -536 -11 -180 41 -320 166
-444 127 -126 262 -176 456 -167 281 12 489 175 556 435 51 201 -2 395 -151
544 -81 82 -155 125 -262 154 -67 18 -218 26 -280 14z m285 -179 c84 -33 167
-114 214 -207 30 -61 37 -88 41 -152 11 -186 -75 -339 -230 -412 -133 -63
-281 -61 -409 6 -84 44 -141 104 -182 192 -43 92 -50 215 -17 311 49 147 142
237 282 276 77 22 227 15 301 -14z"/>
<path d="M16408 4180 c-138 -23 -256 -87 -348 -186 -101 -110 -152 -240 -151
-389 0 -102 13 -159 62 -262 141 -297 517 -398 892 -241 l47 20 0 89 c0 49 -2
89 -5 89 -3 0 -29 -13 -58 -29 -168 -94 -388 -113 -535 -46 -75 35 -156 115
-194 194 -59 124 -49 299 23 413 132 207 400 255 685 124 l74 -35 0 89 0 88
-86 31 c-145 53 -289 71 -406 51z"/>
<path d="M17538 4180 c-242 -44 -414 -202 -473 -435 -32 -124 -9 -303 52 -418
43 -80 165 -198 246 -236 255 -121 597 -53 758 152 110 139 153 327 114 496
-27 111 -70 188 -155 273 -81 82 -155 125 -262 154 -67 18 -218 26 -280 14z
m285 -179 c84 -33 167 -114 214 -207 30 -61 37 -88 41 -152 13 -235 -127 -413
-359 -452 -126 -21 -270 19 -364 101 -214 188 -167 562 87 695 94 49 274 56
381 15z"/>
<path d="M20120 4175 c-268 -54 -446 -258 -466 -534 -17 -222 110 -447 303
-544 105 -52 203 -71 327 -64 277 15 486 179 551 432 20 77 19 211 -1 289 -78
302 -390 486 -714 421z m258 -159 c117 -32 214 -116 271 -236 23 -49 26 -67
26 -170 0 -109 -2 -118 -33 -185 -75 -158 -211 -240 -397 -238 -234 1 -405
158 -422 388 -16 205 112 388 307 441 62 17 184 17 248 0z"/>
<path d="M23175 4184 c-309 -48 -531 -311 -512 -609 10 -154 64 -274 171 -380
81 -80 147 -116 269 -147 150 -38 381 -12 518 57 l49 25 0 89 0 89 -87 -44
c-118 -59 -195 -78 -318 -77 -78 0 -112 5 -157 22 -121 47 -205 128 -250 241
-17 44 -22 76 -22 155 0 79 5 111 22 155 30 75 86 146 152 191 82 57 146 74
270 74 116 0 205 -22 312 -76 32 -16 60 -29 63 -29 3 0 4 39 3 87 l-3 88 -59
23 c-130 52 -320 81 -421 66z"/>
<path d="M24041 4175 c-70 -20 -111 -46 -159 -101 -50 -56 -77 -145 -68 -218
15 -114 77 -184 264 -299 60 -37 127 -84 147 -104 126 -122 60 -273 -118 -273
-54 0 -76 6 -134 35 -41 20 -88 54 -112 80 l-41 45 0 -105 0 -105 42 -26 c81
-51 144 -68 253 -69 87 0 107 3 155 26 110 51 171 146 173 267 2 149 -68 244
-268 362 -186 110 -239 181 -199 265 26 56 75 80 164 80 86 -1 159 -29 223
-85 l37 -32 0 95 c0 108 1 107 -103 146 -78 29 -186 35 -256 16z"/>
<path d="M13902 3608 l3 -563 80 0 80 0 3 263 2 262 215 0 215 0 0 75 0 75
-215 0 -215 0 0 150 0 150 215 0 215 0 0 75 0 75 -300 0 -300 0 2 -562z"/>
<path d="M15110 3605 l0 -565 323 2 322 3 3 73 3 72 -246 0 -245 0 0 175 0
175 230 0 231 0 -3 73 -3 72 -227 3 -228 2 0 165 0 165 235 0 235 0 0 75 0 75
-315 0 -315 0 0 -565z"/>
<path d="M18440 3605 l0 -565 75 0 75 0 2 432 3 432 364 -425 c201 -233 370
-427 375 -431 6 -4 39 -8 74 -8 l62 0 0 565 0 565 -75 0 -75 0 -2 -431 -3
-432 -369 429 -369 429 -69 3 -68 3 0 -566z"/>
<path d="M21032 3608 l3 -563 80 0 80 0 3 434 2 434 172 -217 c94 -119 177
-216 184 -216 7 0 88 96 181 214 l168 213 5 -431 5 -431 80 0 80 0 3 563 2
562 -79 0 -79 0 -179 -224 c-98 -124 -181 -225 -185 -225 -4 -1 -89 100 -189
224 l-181 225 -79 0 -79 0 2 -562z"/>
<path d="M22302 3608 l3 -563 80 0 80 0 3 563 2 562 -85 0 -85 0 2 -562z"/>
<path d="M18792 2455 c-159 -49 -244 -209 -198 -370 23 -77 95 -149 236 -235
140 -85 184 -121 209 -173 27 -56 27 -96 -2 -138 -75 -114 -264 -99 -401 33
-27 26 -51 48 -53 48 -2 0 -3 -45 -3 -100 l0 -100 46 -30 c123 -77 296 -98
404 -49 117 54 171 133 178 260 9 156 -47 237 -254 366 -69 43 -143 93 -164
111 -67 57 -77 143 -22 195 37 35 73 47 143 47 71 0 141 -25 209 -75 l50 -37
0 91 0 91 -32 20 c-88 54 -249 75 -346 45z"/>
<path d="M22033 2451 c-159 -55 -240 -218 -186 -377 23 -68 103 -144 233 -224
140 -85 184 -121 209 -173 27 -56 27 -96 -2 -138 -75 -114 -264 -99 -401 33
-27 26 -51 48 -53 48 -2 0 -2 -46 -1 -102 l3 -103 52 -31 c81 -48 156 -68 253
-68 134 0 228 51 285 156 27 48 30 61 30 148 0 80 -4 102 -23 140 -37 70 -97
125 -222 202 -197 122 -239 168 -226 246 11 70 77 112 176 112 72 0 141 -25
210 -75 l50 -37 0 91 0 91 -32 20 c-93 58 -254 76 -355 41z"/>
<path d="M22773 2452 c-160 -57 -240 -219 -186 -378 23 -69 104 -146 243 -230
172 -104 231 -175 216 -259 -30 -156 -264 -164 -420 -13 -27 26 -51 48 -53 48
-2 0 -2 -46 -1 -102 l3 -103 52 -31 c81 -48 156 -68 253 -68 134 0 228 51 285
156 27 48 30 61 30 148 0 80 -4 102 -24 140 -36 71 -97 126 -221 202 -190 117
-230 159 -230 237 0 36 42 89 87 107 82 35 217 7 303 -62 l45 -36 3 89 c3 79
1 90 -18 105 -73 59 -267 86 -367 50z"/>
<path d="M12687 1901 c-131 -308 -237 -562 -237 -566 0 -3 37 -5 82 -3 l83 3
69 163 69 162 236 0 236 -1 69 -157 c38 -86 72 -161 76 -165 4 -4 43 -7 87 -5
l79 3 -246 560 -246 560 -60 3 -61 3 -236 -560z m375 121 c43 -97 80 -185 84
-194 6 -17 -6 -18 -161 -18 -155 0 -167 1 -161 18 34 90 152 372 156 372 3 0
40 -80 82 -178z"/>
<path d="M13657 2453 c-4 -3 -7 -258 -7 -565 l0 -558 80 0 80 0 2 426 3 426
365 -425 365 -426 73 -1 72 0 0 565 0 566 -77 -3 -78 -3 -5 -429 -5 -428 -359
417 c-198 229 -366 423 -374 431 -14 14 -122 20 -135 7z"/>
<path d="M14920 1896 l0 -566 250 0 c371 0 468 26 604 164 117 117 169 241
169 401 0 260 -167 478 -414 541 -48 12 -131 17 -336 21 l-273 5 0 -566z m521
404 c225 -43 363 -235 329 -460 -19 -134 -87 -245 -183 -300 -80 -46 -163 -60
-346 -60 l-161 0 0 415 0 415 154 0 c84 0 177 -5 207 -10z"/>
<path d="M16580 1896 l0 -567 258 3 c254 3 258 3 314 30 122 57 191 155 191
273 0 123 -81 233 -201 273 l-57 19 32 16 c88 46 141 149 129 251 -13 110 -80
196 -189 239 -45 18 -80 21 -264 25 l-213 4 0 -566z m428 389 c38 -23 72 -87
72 -136 0 -58 -39 -121 -90 -146 -37 -19 -60 -23 -147 -23 l-103 0 0 166 0
166 118 -4 c92 -3 124 -8 150 -23z m-29 -465 c134 -15 195 -70 194 -173 -1
-62 -37 -117 -95 -146 -39 -18 -62 -21 -191 -21 l-147 0 0 175 0 175 78 0 c42
0 115 -5 161 -10z"/>
<path d="M17467 2454 c-11 -11 -8 -635 3 -741 5 -50 19 -116 30 -147 68 -182
320 -290 561 -241 162 32 284 123 329 242 34 90 41 195 38 553 l-3 335 -80 0
-80 0 -5 -400 c-6 -441 -5 -437 -71 -504 -19 -19 -59 -46 -89 -60 -48 -23 -68
-26 -155 -26 -83 0 -109 4 -150 23 -60 27 -109 72 -138 127 -21 39 -22 54 -27
440 l-5 400 -75 3 c-42 1 -79 0 -83 -4z"/>
<path d="M19380 1895 l0 -565 80 0 80 0 0 565 0 565 -80 0 -80 0 0 -565z"/>
<path d="M19787 2453 c-4 -3 -7 -258 -7 -565 l0 -558 80 0 80 0 2 425 3 424
365 -424 364 -425 73 0 73 0 -2 563 -3 562 -75 0 -75 0 -3 -433 -2 -433 -375
436 -376 435 -58 0 c-32 0 -61 -3 -64 -7z"/>
<path d="M21047 2453 c-4 -3 -7 -258 -7 -565 l0 -558 325 0 325 0 0 75 0 75
-240 0 -240 0 0 170 0 170 225 0 225 0 0 75 0 75 -225 0 -225 0 0 170 0 170
235 0 236 0 -3 73 -3 72 -311 3 c-171 1 -313 -1 -317 -5z"/>
</g>
</svg>
